<svg width="22" height="22" viewBox="0 0 22 22" fill="none" xmlns="http://www.w3.org/2000/svg">
<g clip-path="url(#clip0_181_1043)">
<path d="M11.6144 16.7781C11.0644 16.6822 11.0644 15.8902 11.6144 15.7944C12.5874 15.6245 13.4883 15.17 14.2032 14.4884C14.9181 13.8068 15.4149 12.9286 15.631 11.9648L15.6687 11.792C15.7881 11.2467 16.5644 11.2435 16.6885 11.7872L16.7357 11.9962C16.9601 12.9537 17.4611 13.8239 18.1764 14.4987C18.8917 15.1735 19.7897 15.623 20.7585 15.7912C21.3133 15.8887 21.3133 16.6838 20.7585 16.7812C19.7842 16.9503 18.8816 17.4039 18.1644 18.0847C17.4471 18.7656 16.9473 19.6434 16.7278 20.6077L16.6885 20.7837C16.5628 21.329 15.7881 21.3242 15.6671 20.7805L15.6357 20.6281C15.4229 19.6599 14.9269 18.7768 14.2108 18.0912C13.4948 17.4057 12.591 16.9486 11.6144 16.7781Z" stroke="#3C56BD" stroke-width="1.57143" stroke-linecap="round" stroke-linejoin="round"/>
<path d="M11.6144 16.7781C11.0644 16.6822 11.0644 15.8902 11.6144 15.7944C12.5874 15.6245 13.4883 15.17 14.2032 14.4884C14.9181 13.8068 15.4149 12.9286 15.631 11.9648L15.6687 11.792C15.7881 11.2467 16.5644 11.2435 16.6885 11.7872L16.7357 11.9962C16.9601 12.9537 17.4611 13.8239 18.1764 14.4987C18.8917 15.1735 19.7897 15.623 20.7585 15.7912C21.3133 15.8887 21.3133 16.6838 20.7585 16.7812C19.7842 16.9503 18.8816 17.4039 18.1644 18.0847C17.4471 18.7656 16.9473 19.6434 16.7278 20.6077L16.6885 20.7837C16.5628 21.329 15.7881 21.3242 15.6671 20.7805L15.6357 20.6281C15.4229 19.6599 14.9269 18.7768 14.2108 18.0912C13.4948 17.4057 12.591 16.9486 11.6144 16.7781Z" fill="#3C56BD"/>
<path fill-rule="evenodd" clip-rule="evenodd" d="M0.0393066 13.8254C0.0393066 15.3088 1.24145 16.5094 2.72331 16.5094H8.45902C8.39471 15.6558 8.66461 14.8106 9.21174 14.1522H2.78931C2.68511 14.1522 2.58519 14.1108 2.51151 14.0371C2.43784 13.9635 2.39645 13.8635 2.39645 13.7594V9.17707L2.71545 9.1205C4.21717 8.85107 5.76418 9.00334 7.18455 9.56039C8.60491 10.1174 9.84299 11.0574 10.7612 12.2759L11.3394 13.0412C11.7348 12.9363 12.0937 12.7246 12.377 12.4295C12.6602 12.1343 12.8569 11.767 12.9455 11.3676L12.9816 11.2042C13.4452 9.09064 15.4849 8.27664 17.1553 8.77164V2.7075C17.1553 1.22564 15.9532 0.0234985 14.4713 0.0234985H2.72331C1.24145 0.0234985 0.0393066 1.22564 0.0393066 2.7075V13.8254ZM12.386 7.12321C12.9574 7.12321 13.5054 6.89623 13.9094 6.4922C14.3135 6.08816 14.5405 5.54017 14.5405 4.96878C14.5405 4.39739 14.3135 3.84941 13.9094 3.44537C13.5054 3.04134 12.9574 2.81436 12.386 2.81436C11.8146 2.81436 11.2666 3.04134 10.8626 3.44537C10.4586 3.84941 10.2316 4.39739 10.2316 4.96878C10.2316 5.54017 10.4586 6.08816 10.8626 6.4922C11.2666 6.89623 11.8146 7.12321 12.386 7.12321Z" fill="#3C56BD"/>
</g>
<defs>
<clipPath id="clip0_181_1043">
<rect width="22" height="22" fill="white"/>
</clipPath>
</defs>
</svg>
