<svg width="26" height="26" viewBox="0 0 26 26" fill="none" xmlns="http://www.w3.org/2000/svg">
<path d="M19.4133 14.43C19.1425 14.3867 18.1025 14.0834 17.8317 13.9642L15.5892 20.9842L12.2417 19.76L14.625 13.5092L11.3208 9.75004L14.0833 8.16837C14.5708 9.39254 15.3508 10.4217 16.38 11.2667C17.4092 12.1117 18.59 12.6425 19.9117 12.8484L21.125 9.13254L19.565 8.62337L19.0017 10.3567C18.2867 10.0534 17.6583 9.59837 17.1167 9.01337C16.575 8.41754 16.185 7.72421 15.9467 6.94421L15.5892 5.77421C15.4592 5.34087 15.21 4.99421 14.8525 4.73421C14.495 4.48504 14.0833 4.33337 13.6825 4.30087C13.26 4.26837 12.8483 4.33337 12.4583 4.56087L8.66666 6.74921C8.26582 6.97671 7.97332 7.30171 7.78916 7.71337C7.58332 8.12504 7.53999 8.53671 7.58332 8.98087C7.62666 9.42504 7.86499 9.81504 8.16832 10.1509L12.0358 14.17L10.205 19.0017L2.67582 16.3042L2.16666 17.8317L17.3767 23.3784C18.2217 23.6817 19.1208 23.8334 20.0742 23.8334C20.7458 23.8334 21.4067 23.7467 22.0567 23.5842C22.6958 23.4109 23.2917 23.1725 23.8333 22.8692L22.6092 21.6667C21.7967 22.0242 20.9517 22.2084 20.0742 22.2084C19.3592 22.2084 18.6442 22.0892 17.9292 21.8509L17.1167 21.5475L19.4133 14.43ZM20.5833 3.25004C20.5833 4.45254 19.6192 5.41671 18.4167 5.41671C17.2142 5.41671 16.25 4.45254 16.25 3.25004C16.25 2.04754 17.225 1.08337 18.4167 1.08337C19.6083 1.08337 20.5833 2.05837 20.5833 3.25004Z" fill="black"/>
</svg>
