<svg width="16" height="16" viewBox="0 0 16 16" fill="none" xmlns="http://www.w3.org/2000/svg">
<path d="M15.3333 2.66663V6.66663H11.3333" stroke="#3C56BD" stroke-width="1.33333" stroke-linecap="round" stroke-linejoin="round"/>
<path d="M0.666748 13.3334V9.33337H4.66675" stroke="#3C56BD" stroke-width="1.33333" stroke-linecap="round" stroke-linejoin="round"/>
<path d="M2.34008 6.00001C2.67819 5.04453 3.25284 4.19028 4.01039 3.51696C4.76795 2.84363 5.68373 2.37319 6.67227 2.14952C7.66082 1.92584 8.68992 1.95624 9.66354 2.23786C10.6372 2.51948 11.5236 3.04315 12.2401 3.76001L15.3334 6.66668M0.666748 9.33334L3.76008 12.24C4.47658 12.9569 5.363 13.4805 6.33662 13.7622C7.31025 14.0438 8.33934 14.0742 9.32789 13.8505C10.3164 13.6268 11.2322 13.1564 11.9898 12.4831C12.7473 11.8097 13.322 10.9555 13.6601 10" stroke="#3C56BD" stroke-width="1.33333" stroke-linecap="round" stroke-linejoin="round"/>
</svg>
