<svg width="32" height="32" viewBox="0 0 32 32" fill="none" xmlns="http://www.w3.org/2000/svg">
<path d="M14.8614 4.03075C15.3681 3.12008 15.6214 2.66675 16.0001 2.66675C16.3787 2.66675 16.6321 3.12008 17.1387 4.03075L17.2694 4.26541C17.4134 4.52408 17.4854 4.65208 17.5974 4.73741C17.7107 4.82275 17.8507 4.85475 18.1307 4.91741L18.3841 4.97608C19.3681 5.19875 19.8601 5.30941 19.9774 5.68541C20.0947 6.06141 19.7587 6.45475 19.0881 7.23875L18.9147 7.44141C18.7241 7.66408 18.6281 7.77475 18.5854 7.91341C18.5427 8.05208 18.5574 8.20008 18.5854 8.49742L18.6121 8.76808C18.7134 9.81475 18.7641 10.3387 18.4587 10.5707C18.1521 10.8041 17.6907 10.5907 16.7694 10.1667L16.5321 10.0574C16.2694 9.93742 16.1387 9.87608 16.0001 9.87608C15.8614 9.87608 15.7307 9.93742 15.4681 10.0574L15.2307 10.1667C14.3094 10.5907 13.8481 10.8041 13.5414 10.5707C13.2347 10.3387 13.2867 9.81475 13.3881 8.76808L13.4147 8.49742C13.4427 8.20008 13.4574 8.05208 13.4147 7.91341C13.3721 7.77475 13.2761 7.66408 13.0854 7.44141L12.9121 7.23875C12.2414 6.45475 11.9054 6.06275 12.0227 5.68541C12.1401 5.30941 12.6321 5.19875 13.6161 4.97608L13.8694 4.91741C14.1494 4.85475 14.2894 4.82408 14.4027 4.73741C14.5147 4.65208 14.5867 4.52408 14.7307 4.26541L14.8614 4.03075ZM17.3334 13.3334H14.6667C12.7814 13.3334 11.8387 13.3334 11.2534 13.9201C10.6667 14.5041 10.6667 15.4467 10.6667 17.3334V29.3334H21.3334V17.3334C21.3334 15.4481 21.3334 14.5054 20.7467 13.9201C20.1627 13.3334 19.2201 13.3334 17.3334 13.3334Z" fill="#3C56BD"/>
<path opacity="0.5" d="M10.0801 25.9199C9.49608 25.3333 8.55341 25.3333 6.66675 25.3333C4.78008 25.3333 3.83875 25.3333 3.25341 25.9199C2.66675 26.5039 2.66675 27.4466 2.66675 29.3333H10.6667C10.6667 27.4479 10.6667 26.5053 10.0801 25.9199ZM21.3334 25.3333V29.3333H29.3334V25.3333C29.3334 23.4479 29.3334 22.5053 28.7467 21.9199C28.1627 21.3333 27.2201 21.3333 25.3334 21.3333C23.4467 21.3333 22.5054 21.3333 21.9201 21.9199C21.3334 22.5039 21.3334 23.4466 21.3334 25.3333Z" fill="#3C56BD"/>
</svg>
