<svg width="25" height="25" viewBox="0 0 25 25" fill="none" xmlns="http://www.w3.org/2000/svg">
<path d="M23.9583 19.7917C23.9583 20.3442 23.7388 20.8741 23.3481 21.2648C22.9574 21.6555 22.4275 21.875 21.875 21.875H3.12496C2.57242 21.875 2.04252 21.6555 1.65182 21.2648C1.26112 20.8741 1.04163 20.3442 1.04163 19.7917V8.33333C1.04163 7.7808 1.26112 7.25089 1.65182 6.86019C2.04252 6.46949 2.57242 6.25 3.12496 6.25H7.29163L9.37496 3.125H15.625L17.7083 6.25H21.875C22.4275 6.25 22.9574 6.46949 23.3481 6.86019C23.7388 7.25089 23.9583 7.7808 23.9583 8.33333V19.7917Z" stroke="#DEE5FF" stroke-width="2.08333" stroke-linecap="round" stroke-linejoin="round"/>
<path d="M12.5 17.7083C14.8012 17.7083 16.6667 15.8429 16.6667 13.5417C16.6667 11.2405 14.8012 9.375 12.5 9.375C10.1989 9.375 8.33337 11.2405 8.33337 13.5417C8.33337 15.8429 10.1989 17.7083 12.5 17.7083Z" stroke="#DEE5FF" stroke-width="2.08333" stroke-linecap="round" stroke-linejoin="round"/>
</svg>
