<svg width="42" height="57" viewBox="0 0 42 57" fill="none" xmlns="http://www.w3.org/2000/svg">
<path d="M21 26.9912C19.0109 26.9912 17.1032 26.2428 15.6967 24.9108C14.2902 23.5787 13.5 21.7721 13.5 19.8882C13.5 18.0044 14.2902 16.1978 15.6967 14.8657C17.1032 13.5336 19.0109 12.7853 21 12.7853C22.9891 12.7853 24.8968 13.5336 26.3033 14.8657C27.7098 16.1978 28.5 18.0044 28.5 19.8882C28.5 20.821 28.306 21.7446 27.9291 22.6064C27.5522 23.4682 26.9997 24.2512 26.3033 24.9108C25.6069 25.5703 24.7801 26.0935 23.8701 26.4505C22.9602 26.8075 21.9849 26.9912 21 26.9912ZM21 0C15.4305 0 10.089 2.09536 6.15076 5.82513C2.21249 9.5549 0 14.6135 0 19.8882C0 34.8044 21 56.8235 21 56.8235C21 56.8235 42 34.8044 42 19.8882C42 14.6135 39.7875 9.5549 35.8492 5.82513C31.911 2.09536 26.5695 0 21 0Z" fill="#6175C4"/>
</svg>
