<svg width="24" height="24" viewBox="0 0 24 24" fill="none" xmlns="http://www.w3.org/2000/svg">
<path fill-rule="evenodd" clip-rule="evenodd" d="M23.2016 12.2415C23.2016 11.4359 23.1293 10.6613 22.995 9.91772H12.2953V14.3123H18.4094C18.1461 15.7323 17.3456 16.9355 16.1424 17.7411V20.5916H19.814C21.9622 18.6138 23.2016 15.7014 23.2016 12.2415Z" fill="#4285F4"/>
<path fill-rule="evenodd" clip-rule="evenodd" d="M12.2953 23.344C15.3627 23.344 17.9343 22.3267 19.814 20.5916L16.1424 17.7411C15.1251 18.4228 13.8238 18.8256 12.2953 18.8256C9.33634 18.8256 6.83182 16.8271 5.93845 14.1418H2.14294V17.0853C4.0123 20.7982 7.85428 23.344 12.2953 23.344Z" fill="#34A853"/>
<path fill-rule="evenodd" clip-rule="evenodd" d="M5.93845 14.1416C5.71123 13.46 5.58213 12.7319 5.58213 11.9831C5.58213 11.2343 5.71123 10.5062 5.93845 9.82456V6.8811H2.14294C1.37351 8.4148 0.93457 10.1499 0.93457 11.9831C0.93457 13.8163 1.37351 15.5514 2.14294 17.0851L5.93845 14.1416Z" fill="#FBBC05"/>
<path fill-rule="evenodd" clip-rule="evenodd" d="M12.2953 5.14102C13.9632 5.14102 15.4608 5.71422 16.6382 6.83997L19.8966 3.58151C17.9292 1.7483 15.3575 0.622559 12.2953 0.622559C7.85428 0.622559 4.0123 3.16839 2.14294 6.88128L5.93845 9.82473C6.83182 7.13948 9.33634 5.14102 12.2953 5.14102Z" fill="#EA4335"/>
</svg>
