<svg width="143" height="33" viewBox="0 0 143 33" fill="none" xmlns="http://www.w3.org/2000/svg">
<g clip-path="url(#clip0_213_900)">
<path d="M-6.19273e-06 6.27706C-6.19273e-06 5.88794 0.259413 5.50807 0.782883 5.13284C1.30635 4.76224 2.00586 4.42407 2.88603 4.12296C3.7662 3.82185 4.78071 3.58096 5.92493 3.39566C7.06916 3.21036 8.26897 3.12234 9.52437 3.12234C11.2616 3.12234 12.8273 3.34934 14.2171 3.80332C15.6068 4.2573 16.7927 4.90122 17.7656 5.7258C18.7384 6.55501 19.4935 7.551 20.0216 8.72301C20.5497 9.89503 20.8137 11.1875 20.8137 12.605C20.8137 14.1199 20.5728 15.4494 20.0911 16.5936C19.6093 17.7378 18.9237 18.6967 18.0389 19.4657C17.1541 20.2347 16.084 20.8092 14.8332 21.1936C13.5824 21.5781 12.1927 21.7681 10.6686 21.7681C10.2795 21.7681 9.88107 21.7403 9.47341 21.6893C9.06112 21.6337 8.67663 21.5735 8.31066 21.4948C7.9447 21.416 7.62505 21.3419 7.34247 21.2631C7.05989 21.1844 6.85606 21.1195 6.72635 21.0593C6.68929 21.0964 6.65687 21.1427 6.62907 21.2029C6.60128 21.2631 6.58275 21.3465 6.58275 21.4531C6.58275 21.5828 6.63834 21.7079 6.74952 21.8237C6.8607 21.9441 7.05989 22.0507 7.33784 22.1433C7.62042 22.236 8.00029 22.324 8.4728 22.3981C8.94994 22.4768 9.54753 22.5371 10.2795 22.5834V25.298C9.99688 25.5343 9.65871 25.7427 9.26495 25.928C8.87119 26.1133 8.44964 26.2662 8.00492 26.3959C7.5602 26.5256 7.09232 26.6229 6.60591 26.6878C6.1195 26.7526 5.63309 26.785 5.15131 26.785C4.48423 26.785 3.83569 26.7156 3.21493 26.5812C2.59418 26.4469 2.04292 26.2292 1.5704 25.9327C1.09326 25.6362 0.713396 25.2563 0.426182 24.7884C0.138968 24.3206 -0.00463867 23.7647 -0.00463867 23.1115V6.27706H-6.19273e-06ZM9.84401 14.5738C9.88107 14.597 9.93666 14.6109 10.0108 14.6202C10.0849 14.6248 10.1359 14.6294 10.159 14.6294C10.4416 14.6294 10.6408 14.5414 10.7566 14.3654C10.8724 14.1893 10.9326 13.8975 10.9326 13.4945V12.1464C10.9326 11.7341 10.8817 11.433 10.7844 11.2431C10.6825 11.0531 10.5018 10.9605 10.2285 10.9605C10.1683 10.9605 10.0988 10.9651 10.0154 10.979C9.93203 10.9929 9.86718 11.0068 9.82085 11.03C9.83012 11.1273 9.83938 11.2246 9.83938 11.3311V14.5738H9.84401Z" fill="#714CFE"/>
<path d="M51.7355 12.6884C51.5455 12.6884 51.3649 12.6884 51.1888 12.6977C51.0128 12.7023 50.8553 12.7255 50.721 12.7672C50.5866 12.8089 50.4754 12.8691 50.3967 12.9525C50.3133 13.0358 50.2716 13.1517 50.2716 13.3092V13.4064C50.2716 13.4481 50.2762 13.4806 50.2901 13.5037C50.4893 13.4898 50.6607 13.4852 50.7997 13.4852H51.2213C51.8096 13.4852 52.4118 13.5315 53.0372 13.6195C53.658 13.7076 54.2602 13.8512 54.8439 14.055C55.4229 14.2542 55.9742 14.5229 56.4884 14.8518C57.0072 15.1807 57.452 15.5837 57.8364 16.0562C58.2163 16.5287 58.5221 17.0846 58.7444 17.7239C58.9668 18.3632 59.078 19.0905 59.078 19.9058C59.078 21.1334 58.8556 22.2082 58.4155 23.1254C57.9754 24.0426 57.35 24.8023 56.5394 25.4046C55.7287 26.0068 54.7559 26.4608 53.6163 26.7619C52.4767 27.063 51.2074 27.2159 49.813 27.2159C48.5205 27.2159 47.3393 27.1047 46.2645 26.8777C45.1898 26.6507 44.2725 26.3172 43.5082 25.8678C42.7438 25.4185 42.1509 24.8533 41.7293 24.1723C41.3078 23.4914 41.0947 22.6899 41.0947 21.7681C41.0947 21.4253 41.1364 21.0964 41.2197 20.786C41.3031 20.471 41.4097 20.1884 41.5348 19.9243C41.6598 19.6603 41.8127 19.4379 41.9748 19.2434C42.137 19.0488 42.3037 18.8959 42.4659 18.7894C42.7485 19.0256 43.1144 19.2665 43.5684 19.5074C44.0224 19.7483 44.5366 19.966 45.1203 20.156C45.6994 20.3459 46.334 20.4988 47.015 20.6192C47.696 20.7397 48.4186 20.7952 49.183 20.7952C49.535 20.7952 49.762 20.7489 49.8593 20.6516C49.9566 20.559 50.0076 20.4293 50.0076 20.2625C50.0076 20.1699 49.989 20.0726 49.9566 19.9799C49.8269 19.9938 49.7296 19.9985 49.6555 19.9985H49.4609C48.3121 19.9985 47.2234 19.8827 46.195 19.6418C45.1666 19.4055 44.2679 19.0303 43.4943 18.5161C42.7207 18.0019 42.1046 17.3487 41.6459 16.5565C41.1873 15.7644 40.9603 14.8055 40.9603 13.6844C40.9603 12.7486 41.1503 11.8592 41.5255 11.0161C41.9007 10.173 42.4705 9.43178 43.2349 8.79249C43.9992 8.15321 44.9535 7.64827 46.107 7.26841C47.2559 6.88855 48.6085 6.70325 50.1558 6.70325C50.9202 6.70325 51.6521 6.74957 52.3562 6.83759C53.0604 6.92561 53.7228 7.04605 54.3389 7.19892C54.955 7.35179 55.5248 7.53246 56.0483 7.74092C56.5718 7.94938 57.0258 8.16248 57.4149 8.38947C57.5307 8.63962 57.6187 8.96853 57.6697 9.38082C57.7206 9.79311 57.7484 10.1776 57.7484 10.5343C57.7484 11.3496 57.6326 12.0306 57.3964 12.5726C57.1601 13.1146 56.8868 13.5408 56.5672 13.8512C56.2985 13.6983 55.9881 13.5547 55.636 13.4157C55.284 13.2814 54.8995 13.1609 54.4825 13.0544C54.0656 12.9478 53.6255 12.8644 53.1623 12.7996C52.699 12.7347 52.2265 12.7023 51.7447 12.7023L51.7355 12.6884Z" fill="#714CFE"/>
<path d="M70.1218 27.2066C68.5144 27.2066 67.0551 26.975 65.7534 26.5071C64.4517 26.0392 63.3399 25.3675 62.418 24.4874C61.4962 23.6072 60.7874 22.5324 60.2871 21.2678C59.7868 20.0031 59.5366 18.5809 59.5366 16.9966C59.5366 15.3289 59.8053 13.8604 60.338 12.5819C60.8708 11.3033 61.5934 10.2378 62.506 9.37157C63.414 8.50993 64.4748 7.85675 65.6839 7.4213C66.893 6.98585 68.1669 6.76349 69.5057 6.76349C70.9232 6.76349 72.2065 6.97195 73.346 7.39351C74.4856 7.81506 75.4584 8.38949 76.2599 9.12142C77.0613 9.85335 77.682 10.7104 78.1175 11.6924C78.5529 12.6745 78.7707 13.7215 78.7707 14.8286C78.7707 15.8802 78.5854 16.7835 78.2148 17.5433C77.8442 18.303 77.33 18.9237 76.6722 19.4148C76.0143 19.9058 75.2315 20.2672 74.3281 20.5034C73.4248 20.7397 72.4427 20.8601 71.3865 20.8601C70.5897 20.8601 69.8161 20.7675 69.0703 20.5775C69.5984 20.8972 68.3244 20.3876 69.0703 20.5775C69.01 20.6239 67.0644 19.9244 67.0459 20.0031C67.0273 20.0819 67.0181 20.1467 67.0181 20.2069C67.0181 20.383 67.1478 20.559 67.4072 20.7304C67.6666 20.9018 68.0002 21.0547 68.4124 21.1937C68.8247 21.328 69.2926 21.4438 69.8207 21.5318C70.3488 21.6198 70.8769 21.6662 71.405 21.6662C72.1323 21.6662 72.7948 21.6152 73.3924 21.5133C73.99 21.4114 74.5273 21.2863 75.0045 21.1427C75.4816 20.9945 75.8939 20.8323 76.246 20.6563C76.598 20.4803 76.8899 20.3089 77.1261 20.1421C77.279 20.2718 77.4087 20.4664 77.5245 20.7165C77.6357 20.9713 77.733 21.2493 77.8164 21.5596C77.8998 21.8654 77.96 22.185 78.0017 22.5093C78.0434 22.8336 78.0619 23.1347 78.0619 23.4034C78.0619 23.672 78.048 23.9315 78.0202 24.1723C77.9924 24.4132 77.9507 24.6263 77.9044 24.8024C77.5292 25.122 77.1169 25.4277 76.6722 25.715C76.2274 26.0068 75.6993 26.257 75.0879 26.4793C74.4764 26.697 73.7722 26.8777 72.9662 27.0121C72.1601 27.1464 71.2151 27.2159 70.1218 27.2159V27.2066ZM69.8902 15.2039C70.1821 15.2039 70.4044 15.1436 70.5527 15.0186C70.7009 14.8935 70.7704 14.7314 70.7704 14.5322C70.7704 14.2959 70.687 14.1291 70.5156 14.0365C70.3442 13.9438 70.145 13.8929 69.9087 13.8929C69.5798 13.8929 69.3204 13.9855 69.1259 14.1662C68.9313 14.3469 68.8108 14.5924 68.7645 14.9028C68.8803 14.9722 69.0332 15.0417 69.2231 15.1066C69.4131 15.1714 69.6354 15.2039 69.8948 15.2039H69.8902Z" fill="#714CFE"/>
<path d="M83.3754 7.04143C83.8664 7.04143 84.3158 7.07849 84.7142 7.14797C85.1126 7.21746 85.4461 7.32401 85.7194 7.46761C85.9418 7.08775 85.0616 7.95402 85.7194 7.46761C85.636 7.61122 85.7194 7.46761 84.2741 9.20479C84.1814 9.31597 85.6314 7.36107 85.7194 7.46761C85.8074 7.57416 85.4832 7.46761 85.7194 7.46761C86.0576 6.92561 85.6036 8.71838 86.002 8.31073C86.4004 7.90307 86.8451 7.56026 87.3408 7.28231C87.8318 7.00437 88.3831 6.7959 88.9853 6.66156C89.5875 6.52722 90.2639 6.45773 91.0005 6.45773C91.4591 6.45773 91.9872 6.50406 92.594 6.59208C93.1962 6.68009 93.8216 6.85149 94.4702 7.10628C95.1141 7.36107 95.7534 7.7224 96.3788 8.18565C97.0088 8.65353 97.5693 9.26038 98.0603 10.0108C98.5514 10.7613 98.9544 11.6785 99.2555 12.7672C99.5566 13.8558 99.7141 15.1483 99.7141 16.6492C99.7141 18.1501 99.5011 19.5769 99.0795 20.7906C98.6579 22.0043 98.0464 23.0235 97.2497 23.8573C96.4529 24.6912 95.4801 25.3212 94.3358 25.752C93.1916 26.1828 91.8991 26.4006 90.4538 26.4006C89.8331 26.4006 89.305 26.3774 88.8695 26.3311C88.4341 26.2847 88.0727 26.2292 87.7762 26.1643C87.4844 26.0994 87.2481 26.0346 87.0721 25.9697C86.8961 25.9049 86.7617 25.8493 86.6691 25.803C86.5857 25.8632 86.544 25.9605 86.544 26.1041C86.544 26.2801 86.6089 26.433 86.7386 26.5581C86.8683 26.6831 87.0767 26.7851 87.364 26.8684C87.6512 26.9518 88.0264 27.0213 88.4896 27.0723C88.9529 27.1232 89.5181 27.1695 90.1898 27.2066V31.9225C89.9535 32.029 89.6802 32.1309 89.3698 32.2328C89.0594 32.3348 88.7259 32.4228 88.3738 32.4969C88.0218 32.5757 87.6604 32.6312 87.2898 32.6729C86.9192 32.7146 86.5579 32.7332 86.2058 32.7332C85.409 32.7332 84.6817 32.659 84.0239 32.5108C83.3661 32.3626 82.8056 32.1263 82.3423 31.802C81.8791 31.4778 81.5178 31.0608 81.2583 30.5513C80.9989 30.0417 80.8692 29.4209 80.8692 28.689V14.4163C80.5172 13.9207 80.2531 13.3601 80.0863 12.7301C79.9149 12.1047 79.8315 11.4469 79.8315 10.7613C79.8315 10.4787 79.8501 10.1776 79.8918 9.85797C79.9335 9.53833 79.9983 9.21406 80.0863 8.88052C80.1743 8.55161 80.2855 8.22734 80.4106 7.91233C80.5403 7.59732 80.6932 7.30548 80.8692 7.03679H83.3708L83.3754 7.04143ZM89.8887 19.2202C89.972 19.3036 90.0925 19.3453 90.2593 19.3453C90.4816 19.3453 90.6298 19.2758 90.7086 19.1415C90.7827 19.0071 90.8244 18.7848 90.8244 18.479V16.6724C90.8244 16.1396 90.8151 15.6903 90.7966 15.3243C90.7781 14.9583 90.741 14.6572 90.6808 14.421C90.6206 14.1847 90.5465 14.0318 90.4631 13.9577C90.3751 13.8882 90.2731 13.8512 90.1527 13.8512C90.0462 13.8512 89.9628 13.8697 89.8979 13.9068C89.8331 13.9438 89.7775 13.9855 89.7311 14.0318C89.745 14.2218 89.7589 14.3978 89.7821 14.5646C89.8053 14.7313 89.8238 14.9166 89.8377 15.1251C89.8516 15.3336 89.8609 15.5745 89.8748 15.8524C89.8887 16.1304 89.8933 16.4639 89.8933 16.853V19.2295L89.8887 19.2202Z" fill="#714CFE"/>
<path d="M100.724 9.41326C100.96 9.26039 101.187 9.11215 101.437 9.13995C101.752 9.17701 103.003 9.27892 103.272 9.13995C103.05 9.02414 101.734 8.40802 101.498 8.19492C101.261 7.98183 101.048 7.72704 100.854 7.4213C100.659 7.12019 100.502 6.77275 100.377 6.38362C100.252 5.9945 100.191 5.55441 100.191 5.07263C100.191 4.31754 100.326 3.6273 100.59 3.00655C100.854 2.38579 101.215 1.85306 101.674 1.41297C102.132 0.972888 102.665 0.625452 103.277 0.375298C103.888 0.125144 104.546 0.00469971 105.25 0.00469971C105.954 0.00469971 106.626 0.134409 107.233 0.393828C107.835 0.653247 108.363 1.00995 108.808 1.4593C109.252 1.90865 109.604 2.44138 109.855 3.06214C110.105 3.68289 110.235 4.3546 110.235 5.07263C110.235 5.68875 110.133 6.25855 109.924 6.78202C109.72 7.31012 109.447 7.778 109.104 8.19029C108.761 8.60258 108.363 8.95002 107.909 9.22797C107.45 9.50591 105.292 9.4179 104.801 9.52444C104.801 9.70048 105.5 10.3027 106.505 10.4231C106.695 10.4463 106.806 10.4741 106.992 10.4741C107.58 10.4741 108.192 10.2378 108.826 9.76533C108.859 9.7885 108.919 9.83019 109.002 9.89041C109.086 9.95063 109.174 10.0201 109.266 10.1035C109.359 10.1869 109.447 10.2656 109.53 10.3444C109.614 10.4231 109.665 10.4787 109.688 10.5112V17.534C109.688 18.3493 109.776 19.0488 109.952 19.6371C110.128 20.2208 110.461 20.6702 110.957 20.9759C110.971 21.0732 110.976 21.1844 110.976 21.3234V21.6337C110.976 22.5324 110.851 23.3061 110.605 23.9546C110.36 24.6032 110.012 25.1405 109.567 25.5575C109.123 25.979 108.59 26.2894 107.974 26.4886C107.358 26.6878 106.686 26.7897 105.959 26.7897C105.394 26.7897 104.805 26.697 104.189 26.5071C103.573 26.3172 103.008 25.9975 102.498 25.5482C101.989 25.0988 101.563 24.5013 101.229 23.7508C100.895 23.0003 100.729 22.0646 100.729 20.9389V9.41326H100.724Z" fill="#714CFE"/>
<path d="M121.186 24.983C120.667 25.525 119.995 25.9651 119.171 26.294C118.341 26.6229 117.401 26.7897 116.345 26.7897C115.817 26.7897 115.279 26.7109 114.733 26.5581C114.186 26.4052 113.695 26.1689 113.255 25.8586C112.815 25.5435 112.453 25.1544 112.171 24.6865C111.888 24.2187 111.749 23.6674 111.749 23.0281V2.33946C112.291 2.01981 112.958 1.75113 113.746 1.5334C114.538 1.31568 115.349 1.2045 116.187 1.2045C116.799 1.2045 117.392 1.28325 117.975 1.39906C118.661 1.53804 118.666 1.63069 119.12 1.90864C119.569 2.18658 119.801 2.54328 120.078 2.988C120.352 3.43272 120.546 3.85891 120.676 4.54452L121.033 6.57354C121.033 7.45834 120.954 8.28756 120.797 9.05655C120.639 9.82554 120.44 10.5343 120.208 11.1829C120.125 11.3126 120.004 11.4654 119.838 11.6461C119.671 11.8221 119.513 12.0074 119.351 12.1974C119.194 12.3873 119.055 12.568 118.939 12.7486C118.823 12.9293 118.763 13.0729 118.763 13.1934C118.763 13.4064 118.902 13.5825 119.184 13.7261C119.666 13.2767 120.088 12.8181 120.444 12.341C120.801 11.8685 121.121 11.3589 121.403 10.8076C121.686 10.2564 121.936 9.6634 122.154 9.01486C122.372 8.36631 122.58 7.65291 122.779 6.86076C122.932 6.83759 123.122 6.80517 123.349 6.76347C123.576 6.72178 123.812 6.68009 124.053 6.6384C124.294 6.5967 124.521 6.55964 124.739 6.53185C124.956 6.50405 125.137 6.48552 125.276 6.48552C126.156 6.48552 126.953 6.58744 127.662 6.7959C128.371 7.00436 128.973 7.31011 129.464 7.71776C129.955 8.12542 130.339 8.62573 130.608 9.22332C130.877 9.82091 131.011 10.5111 131.011 11.2894C131.011 12.0213 130.886 12.6884 130.641 13.2953C130.395 13.8975 130.057 14.4395 129.626 14.9166C129.2 15.3938 128.704 15.8107 128.139 16.1581C127.574 16.5056 126.976 16.7928 126.342 17.0198C126.657 17.2097 126.972 17.3719 127.273 17.5062C127.578 17.6405 127.889 17.761 128.208 17.8722C128.523 17.9787 128.862 18.0714 129.223 18.1547C129.58 18.2381 129.983 18.3122 130.427 18.3864C130.742 18.9654 130.983 19.5584 131.141 20.1606C131.298 20.7628 131.377 21.3558 131.377 21.9348C131.377 22.5973 131.275 23.2227 131.067 23.8156C130.863 24.4086 130.548 24.9228 130.136 25.3675C129.719 25.8122 129.195 26.1597 128.57 26.4144C127.94 26.6692 127.212 26.7943 126.379 26.7943C125.545 26.7943 124.808 26.6322 124.132 26.3079C123.456 25.9836 122.867 25.5204 122.362 24.9182C121.857 24.3159 121.445 23.584 121.13 22.7177C120.81 21.8561 120.602 20.8833 120.495 19.8085L119.652 20.1791C119.652 20.5822 119.694 20.9991 119.777 21.4392C119.861 21.8746 119.967 22.3054 120.102 22.727C120.236 23.1486 120.398 23.5516 120.583 23.9407C120.773 24.3298 120.973 24.6819 121.181 24.9876L121.186 24.983Z" fill="#714CFE"/>
<path d="M142.402 8.09302C142.402 8.97782 142.347 9.8163 142.236 10.6038C142.124 11.3913 141.981 12.1279 141.805 12.8181C141.629 13.5084 141.43 14.1477 141.207 14.7314C140.985 15.3151 140.762 15.8524 140.535 16.3342C140.299 16.2277 140.035 16.135 139.734 16.0516C139.433 15.9682 139.174 15.9265 138.951 15.9265C138.752 15.9265 137.918 15.8385 137.742 15.8478C137.436 15.8617 135.991 16.0285 136.093 17.0754L138.191 16.8716C138.919 16.8438 139.363 16.8808 140.081 17.1541C140.688 17.3811 141.309 17.9648 141.745 18.4281C142.18 18.8913 142.379 19.2666 142.625 19.878C142.87 20.4849 142.995 21.1288 142.995 21.8005C142.995 22.4722 142.861 23.1578 142.588 23.7786C142.319 24.3993 141.948 24.9413 141.485 25.4C141.022 25.8632 140.48 26.2245 139.854 26.4886C139.234 26.7526 138.567 26.887 137.863 26.887C137.158 26.887 136.519 26.7526 135.908 26.4886C135.296 26.2245 134.763 25.8586 134.305 25.4C133.846 24.9413 133.485 24.3993 133.211 23.7786C132.943 23.1578 132.808 22.5 132.808 21.8005C132.808 20.8323 133.049 19.9522 133.531 19.16C134.013 18.3679 134.638 17.7471 135.417 17.2978C135.064 16.6816 134.745 16.0099 134.458 15.2873C134.17 14.5646 133.925 13.8049 133.716 13.0173C133.508 12.2298 133.355 11.4191 133.249 10.5899C133.142 9.75608 133.091 8.92686 133.091 8.09765V2.31168C133.304 2.15881 133.564 2.00594 133.874 1.8577C134.184 1.70946 134.532 1.57975 134.912 1.46857C135.291 1.35739 135.694 1.26938 136.116 1.20452C136.538 1.13967 136.968 1.10724 137.399 1.10724C138.27 1.10724 139.016 1.21379 139.646 1.42688C140.276 1.63997 140.79 1.97814 141.198 2.43676C141.601 2.90001 141.902 3.50223 142.097 4.24343C142.291 4.98462 142.388 5.89259 142.388 6.95806V8.09302H142.402Z" fill="#714CFE"/>
<path d="M31.4774 19.5469C31.9879 19.4516 32.145 17.9981 31.8282 16.3005C31.5114 14.6028 30.8407 13.3039 30.3302 13.3991C29.8196 13.4944 29.6626 14.9478 29.9794 16.6455C30.2961 18.3431 30.9668 19.6421 31.4774 19.5469Z" fill="white"/>
<path d="M30.63 27.92C35.8901 27.92 40.1543 22.8635 40.1543 16.626C40.1543 10.3885 35.8901 5.33206 30.63 5.33206C25.3698 5.33206 21.1056 10.3885 21.1056 16.626C21.1056 22.8635 25.3698 27.92 30.63 27.92Z" fill="#714CFE"/>
<path d="M30.347 20.111C30.9255 20.0031 31.103 18.3538 30.7435 16.4273C30.384 14.5008 29.6237 13.0265 29.0452 13.1345C28.4667 13.2424 28.2892 14.8917 28.6487 16.8182C29.0082 18.7447 29.7686 20.219 30.347 20.111Z" fill="white"/>
<path d="M32.2642 17.3231C32.9089 15.5812 32.9842 14.0034 32.4323 13.7992C31.8805 13.595 30.9105 14.8415 30.2657 16.5835C29.621 18.3254 29.5458 19.9031 30.0976 20.1074C30.6495 20.3116 31.6195 19.0651 32.2642 17.3231Z" fill="white"/>
<path d="M28.0867 7.02289C25.8724 7.78262 24.1028 9.57075 23.3755 11.8036C23.1902 12.3734 24.0842 12.6143 24.2695 12.0491C24.8903 10.1405 26.4329 8.56551 28.3322 7.91696C28.5685 7.83821 28.726 7.59732 28.6565 7.34716C28.5916 7.11554 28.323 6.94414 28.0867 7.02289Z" fill="white"/>
</g>
<defs>
<clipPath id="clip0_213_900">
<rect width="143" height="32.7331" fill="white"/>
</clipPath>
</defs>
</svg>
