<svg width="57" height="10" viewBox="0 0 57 10" fill="none" xmlns="http://www.w3.org/2000/svg">
<g clip-path="url(#clip0_104_743)">
<path d="M5.04965 3.9866H7.77235V3.34835H2.53274C2.53274 3.34835 2.26364 3.37241 2.26364 3.1584V2.49355H7.66408V0.329956H0.98397V0.931482H6.37681V1.85467H0.98397V3.43763C0.98397 3.43763 0.978905 3.9866 1.59056 3.9866H3.73516V4.85977H0V5.50055H8.81711V4.85977H5.04965V3.9866Z" fill="#231815"/>
<path d="M5.08129 6.09192H3.73578C2.62517 8.28717 0.393188 8.54045 0.393188 8.54045L0.783864 9.05776C2.7784 8.97355 4.40885 7.30574 4.40885 7.30574C4.40885 7.30574 6.0393 8.97291 8.03384 9.05776L8.42451 8.54045C8.42451 8.54045 6.19254 8.28717 5.08193 6.09192H5.08129Z" fill="#231815"/>
<path d="M14.5974 3.02098H12.7903V3.62251H14.5974V5.40619C14.5974 5.73355 14.2283 5.75444 14.2283 5.75444H11.7164C11.3258 5.75444 11.3733 5.3587 11.3733 5.3587V1.15308H13.7319V0.551556H10.1176V5.76457C10.1176 6.26036 10.7983 6.38699 10.7983 6.38699H14.1751C14.4493 6.38699 14.5974 6.21793 14.5974 6.21793V8.98305H15.8689V0.245728H14.5974V3.02098Z" fill="#231815"/>
<path d="M36.3208 3.24513H35.5242V0.245728H34.3161V8.98369H35.5242V3.9334H36.3208V8.98369H37.5295V0.245728H36.3208V3.24513Z" fill="#231815"/>
<path d="M55.7913 0.245676V2.74169H54.0183C53.8873 2.2877 53.5586 1.89386 53.1085 1.62285H54.5559V1.02133H52.3081V0H51.0417V1.0207H48.7623V1.62222H50.2021C49.6114 1.97744 49.2296 2.54351 49.2296 3.18112C49.2296 4.25627 50.3155 5.12817 51.6553 5.12817C52.9951 5.12817 53.9702 4.34175 54.0722 3.34195H55.7906V5.39474H56.9987V0.245676H55.7906H55.7913ZM51.6445 4.7204C50.9683 4.7204 50.4199 4.03149 50.4199 3.18176C50.4199 2.33202 50.9683 1.64312 51.6445 1.64312C52.3208 1.64312 52.8691 2.33202 52.8691 3.18176C52.8691 4.03149 52.3208 4.7204 51.6445 4.7204Z" fill="#231815"/>
<path d="M18.0692 0.245728H16.7978V8.98369H18.0692V0.245728Z" fill="#231815"/>
<path d="M23.9268 2.19781C23.9268 2.19781 25.2071 3.8232 27.4676 3.83333L27.7475 3.3901C27.7475 3.3901 24.4004 2.97853 24.5942 0.0975342H23.2601C23.4538 2.97853 20.1068 3.3901 20.1068 3.3901L20.3867 3.83333C22.6465 3.82256 23.9268 2.19781 23.9268 2.19781Z" fill="#231815"/>
<path d="M24.56 3.58508H23.2696V4.89958H19.5895V5.56442H23.2696H24.56H28.5136V4.89958H24.56V3.58508Z" fill="#231815"/>
<path d="M21.9677 8.19224V6.27686H20.6653V8.48541C20.6653 8.48541 20.733 8.94827 21.256 8.98119V8.98436H27.4891V8.38283H22.1685C21.9905 8.33914 21.9671 8.19288 21.9671 8.19288L21.9677 8.19224Z" fill="#231815"/>
<path d="M32.1265 0.0633545H30.8842V1.20309H29.0797V1.84387H30.2789C29.6786 2.34852 29.2829 3.21155 29.2829 4.19172C29.2829 5.74809 30.2802 7.0094 31.5098 7.0094C32.7395 7.0094 33.7367 5.74809 33.7367 4.19172C33.7367 3.21155 33.341 2.34852 32.7407 1.84387H33.94V1.20309H32.1278V0.0633545H32.1265ZM31.4984 6.41927C30.8779 6.41927 30.3745 5.422 30.3745 4.19236C30.3745 2.96271 30.8779 1.96544 31.4984 1.96544C32.1189 1.96544 32.6223 2.96271 32.6223 4.19236C32.6223 5.422 32.1189 6.41927 31.4984 6.41927Z" fill="#231815"/>
<path d="M55.7912 5.81775H50.5725V8.37139C50.5725 8.37139 50.6941 8.98368 51.4431 8.98368H56.9993V5.81775H55.7912ZM51.8604 8.30807V6.41928H55.7912V8.30807H51.8604Z" fill="#231815"/>
<path d="M44.1673 5.16056H46.7842V0.33252H45.502V2.07378H41.4338V0.33252H40.1516V4.32919C40.1516 5.03329 40.7531 5.15993 40.7531 5.15993H42.8901V7.12533H39.091V7.73762H47.998V7.12533H44.1673V5.15993V5.16056ZM41.4338 4.32982V2.69114H45.502V4.32982C45.502 4.32982 45.4545 4.50395 45.288 4.50395H43.7607H41.6472C41.4813 4.50395 41.4332 4.32982 41.4332 4.32982H41.4338Z" fill="#231815"/>
</g>
<defs>
<clipPath id="clip0_104_743">
<rect width="57" height="9.05709" fill="white"/>
</clipPath>
</defs>
</svg>
