<svg width="23" height="23" viewBox="0 0 23 23" fill="none" xmlns="http://www.w3.org/2000/svg">
<g clip-path="url(#clip0_211_1692)">
<path d="M16.2917 1.91673H6.70842C4.06205 1.91673 1.91675 4.06204 1.91675 6.7084V16.2917C1.91675 18.9381 4.06205 21.0834 6.70842 21.0834H16.2917C18.9381 21.0834 21.0834 18.9381 21.0834 16.2917V6.7084C21.0834 4.06204 18.9381 1.91673 16.2917 1.91673Z" stroke="#3C56BD" stroke-width="1.91667" stroke-linecap="round" stroke-linejoin="round"/>
<path d="M15.3332 10.8963C15.4515 11.6938 15.3153 12.5084 14.9439 13.2241C14.5725 13.9398 13.985 14.5201 13.2648 14.8826C12.5446 15.2451 11.7284 15.3713 10.9323 15.2432C10.1363 15.1151 9.4009 14.7393 8.83077 14.1691C8.26064 13.599 7.88479 12.8636 7.7567 12.0676C7.6286 11.2715 7.75478 10.4553 8.11728 9.73512C8.47978 9.01492 9.06014 8.42735 9.77583 8.056C10.4915 7.68464 11.3061 7.54841 12.1036 7.66668C12.9172 7.78732 13.6704 8.16642 14.2519 8.74797C14.8335 9.32953 15.2126 10.0827 15.3332 10.8963Z" stroke="#3C56BD" stroke-width="1.91667" stroke-linecap="round" stroke-linejoin="round"/>
<path d="M16.7708 6.22926H16.7805" stroke="#3C56BD" stroke-width="1.91667" stroke-linecap="round" stroke-linejoin="round"/>
</g>
<defs>
<clipPath id="clip0_211_1692">
<rect width="23" height="23" fill="white"/>
</clipPath>
</defs>
</svg>
