<svg width="285" height="65" viewBox="0 0 285 65" fill="none" xmlns="http://www.w3.org/2000/svg">
<g clip-path="url(#clip0_225_3014)">
<path d="M7.20001 12.69C8.20001 12.69 9.11001 12.76 9.92001 12.9C10.73 13.04 11.41 13.26 11.96 13.54C10.62 14.52 9.73001 15.39 9.27001 16.16C9.10001 16.45 9.02001 16.75 9.02001 17.06C9.02001 17.35 9.11001 17.6 9.29001 17.81C9.47001 18.02 9.80001 18.13 10.28 18.13C10.97 17.03 11.73 16.07 12.54 15.24C13.35 14.42 14.26 13.72 15.26 13.16C16.26 12.6 17.38 12.18 18.61 11.91C19.84 11.64 21.21 11.5 22.71 11.5C23.64 11.5 24.72 11.59 25.95 11.77C27.18 11.95 28.45 12.3 29.77 12.81C31.09 13.32 32.38 14.05 33.66 15C34.94 15.94 36.08 17.17 37.08 18.69C38.08 20.21 38.9 22.07 39.52 24.26C40.14 26.46 40.45 29.07 40.45 32.11C40.45 35.15 40.02 38.03 39.16 40.48C38.3 42.93 37.06 44.99 35.43 46.68C33.81 48.36 31.83 49.64 29.5 50.51C27.17 51.38 24.54 51.82 21.6 51.82C20.33 51.82 19.26 51.77 18.37 51.68C17.49 51.58 16.75 51.47 16.15 51.34C15.55 51.21 15.07 51.08 14.72 50.95C14.36 50.82 14.09 50.71 13.9 50.61C13.73 50.73 13.65 50.93 13.65 51.22C13.65 51.58 13.78 51.88 14.04 52.13C14.3 52.38 14.73 52.59 15.31 52.76C15.89 52.93 16.66 53.06 17.6 53.17C18.54 53.28 19.7 53.37 21.06 53.44V62.97C20.58 63.18 20.03 63.39 19.39 63.6C18.76 63.8 18.08 63.98 17.37 64.14C16.65 64.3 15.92 64.41 15.17 64.5C14.42 64.58 13.68 64.62 12.97 64.62C11.35 64.62 9.86001 64.47 8.53001 64.17C7.19001 63.87 6.05001 63.39 5.11001 62.74C4.17001 62.08 3.43001 61.24 2.91001 60.21C2.38001 59.18 2.12001 57.93 2.12001 56.45V27.6C1.40001 26.6 0.87001 25.46 0.53001 24.19C0.18001 22.92 0.0100098 21.6 0.0100098 20.21C0.0100098 19.64 0.0500098 19.03 0.14001 18.38C0.22001 17.74 0.35001 17.08 0.53001 16.41C0.71001 15.74 0.93001 15.09 1.19001 14.46C1.45001 13.83 1.76001 13.24 2.12001 12.69H7.21001H7.20001ZM20.46 37.31C20.63 37.48 20.88 37.56 21.21 37.56C21.66 37.56 21.97 37.42 22.12 37.15C22.27 36.88 22.35 36.43 22.35 35.81V32.15C22.35 31.07 22.33 30.17 22.3 29.43C22.26 28.69 22.19 28.08 22.07 27.6C21.95 27.12 21.8 26.81 21.62 26.67C21.44 26.53 21.23 26.45 20.99 26.45C20.78 26.45 20.6 26.49 20.47 26.56C20.34 26.63 20.22 26.72 20.13 26.81C20.15 27.19 20.19 27.55 20.24 27.89C20.29 28.22 20.32 28.6 20.35 29.02C20.37 29.44 20.4 29.93 20.42 30.49C20.44 31.05 20.46 31.73 20.46 32.51V37.31Z" fill="#714CFE"/>
<path d="M62 52.97C59.2 52.97 56.58 52.54 54.13 51.68C51.68 50.82 49.55 49.52 47.75 47.77C45.95 46.03 44.52 43.85 43.47 41.25C42.42 38.65 41.89 35.6 41.89 32.11C41.89 28.96 42.38 26.11 43.36 23.56C44.34 21.02 45.71 18.85 47.48 17.06C49.25 15.27 51.36 13.89 53.82 12.94C56.28 11.98 59 11.51 61.99 11.51C64.98 11.51 67.7 12.02 70.16 13.05C72.62 14.08 74.73 15.52 76.49 17.37C78.25 19.22 79.61 21.43 80.58 24C81.55 26.57 82.03 29.38 82.03 32.44C82.03 35.5 81.58 38.44 80.67 40.97C79.76 43.5 78.45 45.66 76.73 47.44C75.01 49.22 72.91 50.59 70.42 51.54C67.93 52.5 65.13 52.97 62 52.97ZM61.17 38.17C61.34 38.34 61.59 38.42 61.92 38.42C62.37 38.42 62.68 38.28 62.83 38.01C62.99 37.74 63.06 37.29 63.06 36.67V31.55C63.06 30.48 63.04 29.57 63.01 28.83C62.97 28.09 62.9 27.48 62.78 27C62.66 26.52 62.51 26.21 62.33 26.07C62.15 25.93 61.94 25.86 61.7 25.86C61.49 25.86 61.31 25.9 61.18 25.97C61.05 26.04 60.93 26.13 60.84 26.22C60.86 26.6 60.9 26.96 60.95 27.29C61 27.62 61.03 28 61.06 28.42C61.08 28.84 61.11 29.33 61.13 29.89C61.15 30.45 61.17 31.13 61.17 31.91V38.18V38.17Z" fill="#714CFE"/>
<path d="M105.11 23.62C104.73 23.62 104.36 23.62 104 23.64C103.64 23.66 103.32 23.7 103.05 23.78C102.78 23.86 102.55 23.99 102.39 24.16C102.22 24.33 102.14 24.57 102.14 24.88V25.08C102.14 25.16 102.15 25.23 102.18 25.28C102.59 25.26 102.93 25.24 103.22 25.24H104.08C105.27 25.24 106.5 25.33 107.77 25.51C109.04 25.69 110.26 25.98 111.44 26.39C112.62 26.8 113.74 27.33 114.79 28C115.84 28.67 116.75 29.48 117.53 30.44C118.31 31.4 118.92 32.52 119.38 33.81C119.83 35.1 120.06 36.57 120.06 38.22C120.06 40.71 119.61 42.87 118.72 44.72C117.83 46.57 116.55 48.11 114.9 49.32C113.25 50.54 111.27 51.45 108.95 52.06C106.63 52.67 104.05 52.97 101.21 52.97C98.58 52.97 96.17 52.74 93.99 52.29C91.8 51.84 89.93 51.16 88.38 50.25C86.83 49.34 85.62 48.2 84.76 46.83C83.9 45.46 83.47 43.84 83.47 41.97C83.47 41.28 83.55 40.61 83.72 39.98C83.89 39.35 84.1 38.77 84.37 38.24C84.63 37.71 84.93 37.25 85.27 36.86C85.6 36.47 85.94 36.16 86.27 35.95C86.84 36.43 87.59 36.91 88.51 37.4C89.43 37.89 90.48 38.33 91.66 38.71C92.84 39.09 94.13 39.4 95.51 39.64C96.9 39.88 98.36 40 99.92 40C100.64 40 101.1 39.91 101.3 39.71C101.5 39.52 101.6 39.26 101.6 38.92C101.6 38.73 101.56 38.54 101.49 38.35C101.23 38.37 101.02 38.39 100.88 38.39H100.49C98.15 38.39 95.93 38.15 93.84 37.67C91.75 37.19 89.92 36.43 88.34 35.39C86.76 34.35 85.51 33.03 84.58 31.43C83.65 29.83 83.18 27.89 83.18 25.62C83.18 23.73 83.56 21.94 84.33 20.23C85.09 18.52 86.25 17.02 87.81 15.73C89.36 14.44 91.31 13.41 93.65 12.65C95.99 11.89 98.74 11.5 101.89 11.5C103.44 11.5 104.94 11.59 106.37 11.77C107.8 11.95 109.15 12.19 110.4 12.5C111.65 12.81 112.81 13.18 113.88 13.59C114.94 14.01 115.87 14.44 116.66 14.9C116.9 15.4 117.07 16.07 117.18 16.91C117.29 17.75 117.34 18.52 117.34 19.24C117.34 20.89 117.1 22.26 116.62 23.36C116.14 24.46 115.58 25.32 114.94 25.94C114.39 25.63 113.76 25.34 113.04 25.06C112.32 24.78 111.54 24.54 110.69 24.32C109.84 24.11 108.95 23.93 108 23.8C107.06 23.67 106.09 23.6 105.12 23.6L105.11 23.62Z" fill="#714CFE"/>
<path d="M142.92 52.97C139.65 52.97 136.68 52.5 134.03 51.55C131.38 50.6 129.11 49.24 127.24 47.47C125.36 45.69 123.92 43.52 122.9 40.97C121.88 38.41 121.38 35.54 121.38 32.33C121.38 28.96 121.92 25.99 123.01 23.41C124.1 20.83 125.57 18.67 127.42 16.92C129.27 15.18 131.43 13.86 133.89 12.98C136.35 12.1 138.94 11.65 141.67 11.65C144.56 11.65 147.16 12.07 149.48 12.92C151.8 13.77 153.77 14.93 155.41 16.41C157.05 17.89 158.31 19.62 159.19 21.61C160.07 23.59 160.52 25.71 160.52 27.95C160.52 30.08 160.14 31.9 159.39 33.43C158.64 34.96 157.59 36.22 156.26 37.21C154.92 38.2 153.33 38.94 151.49 39.41C149.65 39.89 147.66 40.13 145.51 40.13C143.89 40.13 142.31 39.94 140.8 39.56C139.29 39.18 137.99 38.66 136.91 38.02C136.79 38.12 136.71 38.24 136.68 38.4C136.65 38.56 136.63 38.69 136.63 38.81C136.63 39.17 136.89 39.52 137.42 39.87C137.95 40.22 138.63 40.53 139.46 40.8C140.29 41.07 141.25 41.3 142.33 41.48C143.4 41.66 144.48 41.75 145.55 41.75C147.03 41.75 148.38 41.65 149.6 41.45C150.82 41.25 151.91 41 152.88 40.7C153.85 40.4 154.69 40.07 155.41 39.71C156.13 39.35 156.72 39 157.2 38.67C157.51 38.93 157.78 39.32 158.01 39.84C158.24 40.35 158.43 40.92 158.6 41.54C158.77 42.16 158.89 42.8 158.98 43.46C159.06 44.12 159.1 44.72 159.1 45.27C159.1 45.82 159.07 46.34 159.01 46.83C158.95 47.32 158.87 47.74 158.78 48.1C158.01 48.74 157.18 49.36 156.27 49.95C155.36 50.53 154.29 51.05 153.04 51.49C151.8 51.93 150.36 52.29 148.72 52.57C147.08 52.84 145.15 52.98 142.93 52.98L142.92 52.97ZM142.45 28.71C143.05 28.71 143.49 28.59 143.79 28.33C144.09 28.07 144.24 27.75 144.24 27.34C144.24 26.86 144.07 26.53 143.72 26.34C143.37 26.15 142.96 26.05 142.48 26.05C141.81 26.05 141.28 26.24 140.88 26.61C140.48 26.98 140.24 27.48 140.15 28.1C140.39 28.24 140.7 28.38 141.08 28.51C141.46 28.64 141.92 28.71 142.44 28.71H142.45Z" fill="#714CFE"/>
<path d="M168.33 12.69C169.33 12.69 170.24 12.76 171.05 12.9C171.86 13.04 172.54 13.26 173.09 13.54C171.75 14.52 170.86 15.39 170.4 16.16C170.23 16.45 170.15 16.75 170.15 17.06C170.15 17.35 170.24 17.6 170.42 17.81C170.6 18.02 170.93 18.13 171.41 18.13C172.1 17.03 172.86 16.07 173.67 15.24C174.48 14.41 175.39 13.72 176.39 13.16C177.39 12.6 178.51 12.18 179.74 11.91C180.97 11.64 182.34 11.5 183.84 11.5C184.77 11.5 185.85 11.59 187.08 11.77C188.31 11.95 189.58 12.3 190.9 12.81C192.21 13.32 193.51 14.05 194.79 15C196.07 15.94 197.21 17.17 198.21 18.69C199.21 20.21 200.03 22.07 200.65 24.26C201.27 26.45 201.58 29.07 201.58 32.11C201.58 35.15 201.15 38.03 200.29 40.48C199.43 42.93 198.19 44.99 196.56 46.68C194.94 48.36 192.96 49.64 190.63 50.51C188.3 51.38 185.67 51.82 182.73 51.82C181.46 51.82 180.39 51.77 179.5 51.68C178.62 51.58 177.88 51.47 177.28 51.34C176.68 51.21 176.2 51.08 175.85 50.95C175.49 50.82 175.22 50.71 175.03 50.61C174.86 50.73 174.78 50.93 174.78 51.22C174.78 51.58 174.91 51.88 175.17 52.13C175.43 52.38 175.86 52.59 176.44 52.76C177.02 52.93 177.79 53.06 178.73 53.17C179.67 53.28 180.83 53.37 182.19 53.44V62.97C181.71 63.18 181.16 63.39 180.52 63.6C179.89 63.8 179.21 63.98 178.49 64.14C177.77 64.3 177.04 64.41 176.29 64.5C175.54 64.58 174.8 64.62 174.09 64.62C172.47 64.62 170.98 64.47 169.65 64.17C168.31 63.87 167.17 63.39 166.23 62.74C165.29 62.08 164.55 61.24 164.03 60.21C163.5 59.18 163.24 57.93 163.24 56.45V27.6C162.52 26.6 161.99 25.46 161.65 24.19C161.3 22.92 161.13 21.6 161.13 20.21C161.13 19.64 161.17 19.03 161.25 18.38C161.33 17.74 161.47 17.08 161.64 16.41C161.82 15.74 162.04 15.09 162.3 14.46C162.56 13.83 162.87 13.24 163.23 12.69H168.32H168.33ZM181.59 37.31C181.76 37.48 182.01 37.56 182.34 37.56C182.79 37.56 183.1 37.42 183.25 37.15C183.41 36.88 183.48 36.43 183.48 35.81V32.15C183.48 31.07 183.46 30.17 183.43 29.43C183.39 28.69 183.32 28.08 183.2 27.6C183.08 27.12 182.93 26.81 182.75 26.67C182.57 26.53 182.36 26.45 182.12 26.45C181.91 26.45 181.73 26.49 181.6 26.56C181.47 26.63 181.35 26.72 181.26 26.81C181.28 27.19 181.32 27.55 181.37 27.89C181.42 28.22 181.45 28.6 181.48 29.02C181.5 29.44 181.53 29.93 181.55 30.49C181.57 31.05 181.59 31.73 181.59 32.51V37.31Z" fill="#714CFE"/>
<path d="M212.33 54.35C207.01 54.35 202.7 50.04 202.7 44.72V28.62C201.35 9.66997 207.01 18.99 212.33 18.99C221.96 15.55 221.96 23.3 221.96 28.62L220.55 45.19C225.99 48.55 217.65 54.35 212.32 54.35H212.33Z" fill="#714CFE"/>
<path d="M245.27 48.85C244.22 49.95 242.85 50.83 241.17 51.5C239.49 52.17 237.57 52.5 235.42 52.5C234.34 52.5 233.25 52.34 232.14 52.03C231.03 51.72 230.03 51.25 229.13 50.61C228.23 49.98 227.5 49.19 226.93 48.24C226.36 47.3 226.07 46.18 226.07 44.89V3.08004C227.17 2.43004 228.53 1.89004 230.14 1.45004C231.75 1.01004 233.41 0.790039 235.1 0.790039C236.34 0.790039 237.55 0.920039 238.74 1.18004C239.93 1.44004 240.97 1.85004 241.89 2.42004C242.81 2.98004 243.55 3.71004 244.11 4.61004C244.67 5.51004 244.95 6.59004 244.95 7.85004V11.65C244.95 13.44 244.79 15.11 244.47 16.67C244.15 18.22 243.75 19.66 243.27 20.97C243.1 21.23 242.85 21.54 242.52 21.9C242.19 22.26 241.86 22.63 241.53 23.01C241.21 23.39 240.93 23.76 240.69 24.12C240.45 24.48 240.33 24.78 240.33 25.02C240.33 25.45 240.62 25.81 241.19 26.1C242.17 25.19 243.02 24.26 243.75 23.31C244.48 22.35 245.13 21.32 245.7 20.21C246.27 19.1 246.78 17.89 247.22 16.59C247.66 15.29 248.09 13.84 248.49 12.24C248.8 12.19 249.19 12.13 249.65 12.04C250.11 11.95 250.59 11.87 251.08 11.79C251.57 11.71 252.04 11.63 252.48 11.58C252.92 11.53 253.29 11.49 253.57 11.49C255.36 11.49 256.98 11.7 258.43 12.12C259.88 12.54 261.1 13.16 262.1 13.98C263.1 14.8 263.88 15.82 264.43 17.03C264.98 18.24 265.25 19.63 265.25 21.2C265.25 22.68 265 24.03 264.5 25.25C264 26.47 263.31 27.56 262.44 28.53C261.57 29.5 260.56 30.33 259.41 31.04C258.26 31.75 257.04 32.33 255.75 32.78C256.4 33.16 257.03 33.49 257.65 33.77C258.27 34.05 258.9 34.29 259.55 34.51C260.2 34.72 260.88 34.92 261.61 35.08C262.34 35.24 263.16 35.4 264.07 35.55C264.72 36.72 265.2 37.92 265.52 39.13C265.84 40.35 266 41.54 266 42.71C266 44.05 265.79 45.31 265.37 46.51C264.95 47.71 264.32 48.75 263.47 49.65C262.62 50.55 261.56 51.25 260.28 51.77C259 52.28 257.51 52.54 255.82 52.54C254.13 52.54 252.62 52.21 251.25 51.55C249.87 50.89 248.67 49.96 247.65 48.74C246.62 47.52 245.79 46.04 245.14 44.3C244.49 42.56 244.06 40.6 243.85 38.42L242.13 39.17C242.13 39.98 242.21 40.83 242.38 41.71C242.55 42.59 242.77 43.46 243.04 44.31C243.31 45.16 243.64 45.98 244.03 46.77C244.41 47.56 244.82 48.26 245.25 48.88L245.27 48.85Z" fill="#714CFE"/>
<path d="M283.85 14.12C283.85 15.91 283.76 17.6 283.58 19.19C283.4 20.78 283.17 22.27 282.89 23.67C282.61 25.07 282.29 26.36 281.94 27.54C281.59 28.72 281.23 29.8 280.88 30.78C280.51 30.57 280.08 30.37 279.6 30.21C279.12 30.05 278.71 29.96 278.35 29.96C278.03 29.96 277.76 30.06 277.52 30.26C277.28 30.46 277.17 30.8 277.17 31.28V31.42C278.24 31.52 279.23 31.85 280.16 32.42C281.09 32.99 281.89 33.75 282.58 34.68C283.27 35.61 283.81 36.69 284.21 37.92C284.6 39.15 284.8 40.45 284.8 41.81C284.8 43.17 284.59 44.55 284.16 45.81C283.73 47.06 283.15 48.16 282.41 49.09C281.67 50.02 280.81 50.76 279.82 51.29C278.83 51.83 277.77 52.1 276.65 52.1C275.53 52.1 274.51 51.83 273.54 51.29C272.57 50.75 271.72 50.02 270.99 49.09C270.26 48.16 269.68 47.07 269.25 45.81C268.82 44.56 268.61 43.22 268.61 41.81C268.61 39.85 268.99 38.07 269.76 36.47C270.53 34.87 271.53 33.62 272.76 32.71C272.2 31.47 271.69 30.11 271.23 28.64C270.77 27.17 270.38 25.64 270.05 24.05C269.72 22.46 269.48 20.82 269.31 19.14C269.14 17.46 269.06 15.78 269.06 14.1V2.44C269.4 2.13 269.81 1.82 270.31 1.53C270.8 1.23 271.36 0.97 271.96 0.74C272.57 0.51 273.21 0.33 273.88 0.2C274.55 0.07 275.24 0 275.93 0C277.31 0 278.5 0.21 279.5 0.64C280.5 1.07 281.32 1.75 281.97 2.68C282.62 3.61 283.09 4.83 283.4 6.34C283.71 7.85 283.86 9.67 283.86 11.82V14.11L283.85 14.12Z" fill="#714CFE"/>
<path d="M218.49 4.29004H204.42C202.371 4.29004 200.71 5.95106 200.71 8.00004V12.49C200.71 14.539 202.371 16.2 204.42 16.2H218.49C220.539 16.2 222.2 14.539 222.2 12.49V8.00004C222.2 5.95106 220.539 4.29004 218.49 4.29004Z" fill="#714CFE"/>
<path d="M215.77 2.10999H207.18C206.733 2.10999 206.37 2.47263 206.37 2.91999V5.00999C206.37 5.45734 206.733 5.81999 207.18 5.81999H215.77C216.217 5.81999 216.58 5.45734 216.58 5.00999V2.91999C216.58 2.47263 216.217 2.10999 215.77 2.10999Z" fill="#714CFE"/>
<path d="M211.45 12.93C213.355 12.93 214.9 11.3854 214.9 9.48003C214.9 7.57465 213.355 6.03003 211.45 6.03003C209.545 6.03003 208 7.57465 208 9.48003C208 11.3854 209.545 12.93 211.45 12.93Z" fill="white"/>
<path d="M211.45 11.43C212.527 11.43 213.4 10.557 213.4 9.48003C213.4 8.40307 212.527 7.53003 211.45 7.53003C210.373 7.53003 209.5 8.40307 209.5 9.48003C209.5 10.557 210.373 11.43 211.45 11.43Z" fill="#714CFE"/>
<path d="M206.99 2.13999C206.21 1.84999 204.34 3.98999 204.72 4.72999C204.97 5.20999 206.37 5.44999 207.15 4.56999C207.92 3.67999 207.5 2.32999 206.99 2.13999Z" fill="#714CFE"/>
<path d="M215.79 2.12997C216.64 1.89997 218.46 4.23997 218 4.96997C217.7 5.43997 216.2 5.56997 215.45 4.59997C214.7 3.62997 215.24 2.27997 215.8 2.12997H215.79Z" fill="#714CFE"/>
<path d="M211.34 7.63L214.84 7.72" stroke="#714CFE" stroke-width="0.2" stroke-miterlimit="10"/>
<path d="M212.41 8.57996L215.39 10.42" stroke="#714CFE" stroke-width="0.2" stroke-miterlimit="10"/>
<path d="M212.86 9.5L213.53 12.93" stroke="#714CFE" stroke-width="0.2" stroke-miterlimit="10"/>
<path d="M211.55 10.58L210.25 13.83" stroke="#714CFE" stroke-width="0.2" stroke-miterlimit="10"/>
<path d="M210.14 10.58L206.64 10.63" stroke="#714CFE" stroke-width="0.2" stroke-miterlimit="10"/>
<path d="M209.76 10.0699L208.21 6.92993" stroke="#714CFE" stroke-width="0.2" stroke-miterlimit="10"/>
<path d="M210.04 8.59002L211.16 5.27002" stroke="#714CFE" stroke-width="0.2" stroke-miterlimit="10"/>
</g>
<defs>
<clipPath id="clip0_225_3014">
<rect width="284.8" height="64.61" fill="white"/>
</clipPath>
</defs>
</svg>
